<svg width="24" height="24" viewBox="0 0 24 24" fill="none" xmlns="http://www.w3.org/2000/svg">
<path d="M17.8193 6.29319H14.9097V5.92127C14.9097 5.30576 14.4205 4.80554 13.8185 4.80554H10.1815C9.57954 4.80554 9.09035 5.30576 9.09035 5.92127V6.29319H6.18069C5.97974 6.29319 5.81699 6.45962 5.81699 6.6651C5.81699 6.87058 5.97974 7.03701 6.18069 7.03701H17.8193C18.0203 7.03701 18.183 6.87058 18.183 6.6651C18.183 6.45962 18.0203 6.29319 17.8193 6.29319ZM9.81776 6.29319V5.92127C9.81776 5.71579 9.98052 5.54936 10.1815 5.54936H13.8185C14.0195 5.54936 14.1822 5.71579 14.1822 5.92127V6.29319H9.81776Z" fill="#241B5E"/>
<path d="M16.9469 8.78093L15.2193 18.4488C15.212 18.4488 15.2047 18.4506 15.1965 18.4506H8.81075C8.80256 18.4506 8.79438 18.4506 8.78711 18.4488L7.05313 8.78093H16.946H16.9469ZM17.8189 8.03711H6.18024L8.09152 18.6886C8.14335 18.9787 8.44977 19.1944 8.81166 19.1944H15.1956C15.5566 19.1944 15.8639 18.9787 15.9158 18.6886L17.8198 8.03711H17.8189Z" fill="#241B5E"/>
<path d="M10.181 17.7069C9.99732 17.7069 9.84002 17.5655 9.82002 17.374L9.04168 9.93578C9.02077 9.73123 9.16534 9.54807 9.36447 9.52668C9.5636 9.50623 9.74364 9.65313 9.76455 9.85675L10.5429 17.295C10.5638 17.4995 10.4192 17.6827 10.2201 17.7041C10.2074 17.7059 10.1937 17.7059 10.181 17.7059V17.7069Z" fill="#241B5E"/>
<path d="M13.8181 17.7068C13.8063 17.7068 13.7935 17.7068 13.7817 17.7049C13.5817 17.6844 13.4362 17.5022 13.4562 17.2977L14.1836 9.85943C14.2036 9.65488 14.3809 9.50519 14.5819 9.52657C14.7819 9.54703 14.9274 9.72926 14.9074 9.93381L14.18 17.372C14.1609 17.5636 14.0027 17.7068 13.8181 17.7068Z" fill="#241B5E"/>
<path d="M11.9996 17.7068C11.7986 17.7068 11.6359 17.5404 11.6359 17.3349V9.89669C11.6359 9.69121 11.7986 9.52478 11.9996 9.52478C12.2005 9.52478 12.3633 9.69121 12.3633 9.89669V17.3349C12.3633 17.5404 12.2005 17.7068 11.9996 17.7068Z" fill="#241B5E"/>
</svg>
