<svg width="24" height="24" viewBox="0 0 24 24" fill="none" xmlns="http://www.w3.org/2000/svg">
<path d="M19.5294 4.76319H15.7647V4.28199C15.7647 3.4856 15.1318 2.83838 14.3529 2.83838H9.64706C8.86824 2.83838 8.23529 3.4856 8.23529 4.28199V4.76319H4.47059C4.21059 4.76319 4 4.97853 4 5.24439C4 5.51026 4.21059 5.7256 4.47059 5.7256H19.5294C19.7894 5.7256 20 5.51026 20 5.24439C20 4.97853 19.7894 4.76319 19.5294 4.76319ZM9.17647 4.76319V4.28199C9.17647 4.01612 9.38706 3.80079 9.64706 3.80079H14.3529C14.6129 3.80079 14.8235 4.01612 14.8235 4.28199V4.76319H9.17647Z" fill="#241B5E"/>
<path d="M18.4006 7.68799L16.1653 20.1969C16.1559 20.1969 16.1465 20.1993 16.1359 20.1993H7.87353C7.86294 20.1993 7.85235 20.1993 7.84294 20.1969L5.59941 7.68799H18.3994H18.4006ZM19.5288 6.72559H4.47L6.94294 20.5072C7.01 20.8826 7.40647 21.1617 7.87471 21.1617H16.1347C16.6018 21.1617 16.9994 20.8826 17.0665 20.5072L19.53 6.72559H19.5288Z" fill="#241B5E"/>
<path d="M9.64646 19.2369C9.40881 19.2369 9.20528 19.0541 9.1794 18.8062L8.17234 9.18217C8.14528 8.91751 8.33234 8.68052 8.58999 8.65285C8.84763 8.62638 9.08058 8.81646 9.10763 9.07992L10.1147 18.704C10.1418 18.9686 9.95469 19.2056 9.69705 19.2333C9.68058 19.2357 9.66293 19.2357 9.64646 19.2357V19.2369Z" fill="#241B5E"/>
<path d="M14.3524 19.2368C14.3371 19.2368 14.3206 19.2368 14.3053 19.2344C14.0465 19.208 13.8582 18.9722 13.8841 18.7075L14.8253 9.08345C14.8512 8.81879 15.0806 8.62511 15.3406 8.65278C15.5994 8.67924 15.7877 8.91503 15.7618 9.1797L14.8206 18.8038C14.7959 19.0516 14.5912 19.2368 14.3524 19.2368Z" fill="#241B5E"/>
<path d="M11.9994 19.2369C11.7394 19.2369 11.5288 19.0215 11.5288 18.7557V9.13159C11.5288 8.86573 11.7394 8.65039 11.9994 8.65039C12.2594 8.65039 12.47 8.86573 12.47 9.13159V18.7557C12.47 19.0215 12.2594 19.2369 11.9994 19.2369Z" fill="#241B5E"/>
</svg>
