<svg width="24" height="25" viewBox="0 0 24 25" fill="none" xmlns="http://www.w3.org/2000/svg">
<path d="M19.5294 5.26319H15.7647V4.78199C15.7647 3.9856 15.1318 3.33838 14.3529 3.33838H9.64706C8.86824 3.33838 8.23529 3.9856 8.23529 4.78199V5.26319H4.47059C4.21059 5.26319 4 5.47853 4 5.74439C4 6.01026 4.21059 6.2256 4.47059 6.2256H19.5294C19.7894 6.2256 20 6.01026 20 5.74439C20 5.47853 19.7894 5.26319 19.5294 5.26319ZM9.17647 5.26319V4.78199C9.17647 4.51612 9.38706 4.30079 9.64706 4.30079H14.3529C14.6129 4.30079 14.8235 4.51612 14.8235 4.78199V5.26319H9.17647Z" fill="#B9B3DA"/>
<path d="M18.4008 8.18799L16.1655 20.6969C16.1561 20.6969 16.1467 20.6993 16.1361 20.6993H7.87374C7.86316 20.6993 7.85257 20.6993 7.84316 20.6969L5.59963 8.18799H18.3996H18.4008ZM19.529 7.22559H4.47021L6.94316 21.0072C7.01021 21.3826 7.40669 21.6617 7.87492 21.6617H16.1349C16.602 21.6617 16.9996 21.3826 17.0667 21.0072L19.5302 7.22559H19.529Z" fill="#B9B3DA"/>
<path d="M9.64664 19.7369C9.40899 19.7369 9.20546 19.5541 9.17958 19.3062L8.17252 9.68217C8.14547 9.41751 8.33252 9.18052 8.59017 9.15285C8.84782 9.12638 9.08076 9.31646 9.10782 9.57992L10.1149 19.204C10.1419 19.4686 9.95488 19.7056 9.69723 19.7333C9.68076 19.7357 9.66311 19.7357 9.64664 19.7357V19.7369Z" fill="#B9B3DA"/>
<path d="M14.3525 19.7368C14.3372 19.7368 14.3207 19.7368 14.3054 19.7344C14.0466 19.708 13.8583 19.4722 13.8842 19.2075L14.8254 9.58345C14.8513 9.31879 15.0807 9.12511 15.3407 9.15278C15.5995 9.17924 15.7877 9.41503 15.7619 9.6797L14.8207 19.3038C14.796 19.5516 14.5913 19.7368 14.3525 19.7368Z" fill="#B9B3DA"/>
<path d="M11.9994 19.7369C11.7394 19.7369 11.5288 19.5215 11.5288 19.2557V9.63159C11.5288 9.36573 11.7394 9.15039 11.9994 9.15039C12.2594 9.15039 12.47 9.36573 12.47 9.63159V19.2557C12.47 19.5215 12.2594 19.7369 11.9994 19.7369Z" fill="#B9B3DA"/>
</svg>
