<svg width="24" height="24" viewBox="0 0 24 24" fill="none" xmlns="http://www.w3.org/2000/svg">
<path d="M14.0355 12.9388C14.13 12.6982 14.1818 12.4365 14.1818 12.1626C14.1818 10.975 13.2073 10.0163 12 10.0163C11.7428 10.0163 11.4961 10.0598 11.2671 10.1398L14.0355 12.9388Z" fill="#241B5E"/>
<path fill-rule="evenodd" clip-rule="evenodd" d="M5.42813 4.23621C5.12257 3.92727 4.62027 3.9205 4.30622 4.22109C3.99217 4.52169 3.98528 5.01582 4.29085 5.32477L18.5718 19.7638C18.8774 20.0727 19.3797 20.0795 19.6938 19.7789C20.0078 19.4783 20.0147 18.9842 19.7091 18.6752L17.007 15.9432C18.3404 14.9996 19.3884 13.6893 20 12.1626C18.7418 9.02179 15.6364 6.79675 12 6.79675C10.8034 6.79675 9.6642 7.0377 8.62945 7.47295L5.42813 4.23621ZM10.1957 9.05655L15.1067 14.0219C15.4427 13.48 15.6364 12.8434 15.6364 12.1626C15.6364 10.1879 14.0073 8.58535 12 8.58535C11.3436 8.58535 10.7275 8.75676 10.1957 9.05655Z" fill="#241B5E"/>
<path d="M6.72024 8.58317C5.51663 9.50802 4.56925 10.7416 4 12.1626C5.25818 15.3034 8.36364 17.5285 12 17.5285C13.0674 17.5285 14.089 17.3368 15.0316 16.9865L13.489 15.4268C13.0345 15.6279 12.5305 15.7398 12 15.7398C9.99277 15.7398 8.36367 14.1372 8.36367 12.1626C8.36367 11.606 8.49311 11.079 8.72395 10.6091L6.72024 8.58317Z" fill="#241B5E"/>
</svg>
