<svg width="24" height="24" viewBox="0 0 24 24" fill="none" xmlns="http://www.w3.org/2000/svg">
<path fill-rule="evenodd" clip-rule="evenodd" d="M7.99932 7.1478C7.80555 6.95106 7.49139 6.95106 7.29762 7.1478C7.10385 7.34455 7.10385 7.66353 7.29762 7.86028L11.2987 11.9228L7.14533 16.1397C6.95156 16.3364 6.95156 16.6554 7.14533 16.8521C7.3391 17.0489 7.65327 17.0489 7.84705 16.8521L12.0004 12.6353L16.1528 16.8515C16.3466 17.0482 16.6607 17.0482 16.8545 16.8515C17.0483 16.6547 17.0483 16.3357 16.8545 16.139L12.7021 11.9228L16.7024 7.86129C16.8961 7.66455 16.8961 7.34557 16.7024 7.14883C16.5086 6.95209 16.1944 6.95209 16.0007 7.14883L12.0004 11.2103L7.99932 7.1478Z" fill="#241B5E"/>
</svg>
