<svg width="24" height="24" viewBox="0 0 24 24" fill="currentColor" stroke="currentColor" stroke-width="0.5" xmlns="http://www.w3.org/2000/svg">
<g clip-path="url(#clip0_253_1277)">
<path d="M17.2441 11.612V19.117H4.88294V6.75587H12.3879V5.87292H4.88294C4.39512 5.87292 4 6.26804 4 6.75587V19.117C4 19.6049 4.39512 20 4.88294 20H17.2441C17.7319 20 18.1271 19.6049 18.1271 19.117V11.612H17.2441Z" fill="#190A33"/>
<path d="M19.4515 4.54853C19.2683 4.36532 19.0575 4.22846 18.8323 4.13686C18.6061 4.04525 18.3666 4 18.1271 4C17.6481 4 17.168 4.18321 16.8027 4.54853L11.7136 9.63758C11.5779 9.77333 11.4907 9.94882 11.4631 10.1375L11.1055 12.6451C11.0856 12.7797 11.1916 12.8967 11.3229 12.8967C11.334 12.8967 11.3439 12.8967 11.3549 12.8945L13.8625 12.5369C14.0512 12.5093 14.2267 12.4222 14.3624 12.2864L19.4515 7.19735C20.1832 6.46561 20.1832 5.28026 19.4515 4.54853ZM13.7378 11.6628L12.1043 11.8957L12.3372 10.2623L16.423 6.17755L17.8456 7.55384L13.7378 11.6628ZM18.8268 6.57267L18.4703 6.92916L17.0477 5.55287L17.4274 5.17321C17.6139 4.98558 17.8622 4.88294 18.1271 4.88294C18.392 4.88294 18.6403 4.98558 18.8268 5.17321C19.2131 5.55839 19.2131 6.18749 18.8268 6.57267Z" fill="#190A33"/>
</g>
<defs>
<clipPath id="clip0_253_1277">
<rect width="16" height="16" fill="white" transform="translate(4 4)"/>
</clipPath>
</defs>
</svg>
