<svg width="20" height="20" viewBox="0 0 20 20" fill="none" xmlns="http://www.w3.org/2000/svg">
<path d="M10 16C13.3137 16 16 13.3137 16 10C16 6.68629 13.3137 4 10 4C6.68629 4 4 6.68629 4 10C4 13.3137 6.68629 16 10 16Z" fill="#EB3D3D"/>
<path d="M8.2548 7.35355C8.05954 7.15829 7.74295 7.15829 7.54769 7.35355L7.35355 7.54769C7.15829 7.74295 7.15829 8.05954 7.35355 8.2548L9.09876 10L7.35355 11.7452C7.15829 11.9405 7.15829 12.257 7.35355 12.4523L7.54769 12.6464C7.74295 12.8417 8.05954 12.8417 8.2548 12.6464L10 10.9012L11.7452 12.6464C11.9405 12.8417 12.257 12.8417 12.4523 12.6464L12.6464 12.4523C12.8417 12.257 12.8417 11.9405 12.6464 11.7452L10.9012 10L12.6464 8.2548C12.8417 8.05954 12.8417 7.74295 12.6464 7.54769L12.4523 7.35355C12.257 7.15829 11.9405 7.15829 11.7452 7.35355L10 9.09876L8.2548 7.35355Z" fill="white"/>
</svg>
