<svg width="24" height="24" viewBox="0 0 24 24" fill="none" xmlns="http://www.w3.org/2000/svg">
<path d="M12 20C16.4183 20 20 16.4183 20 12C20 7.58172 16.4183 4 12 4C7.58172 4 4 7.58172 4 12C4 16.4183 7.58172 20 12 20Z" fill="#EB3D3D"/>
<path d="M9.55521 8.35355C9.35995 8.15829 9.04337 8.15829 8.84811 8.35355L8.35355 8.84811C8.15829 9.04337 8.15829 9.35995 8.35355 9.55521L10.7983 12L8.35355 14.4448C8.15829 14.64 8.15829 14.9566 8.35355 15.1519L8.84811 15.6464C9.04337 15.8417 9.35995 15.8417 9.55521 15.6464L12 13.2017L14.4448 15.6464C14.64 15.8417 14.9566 15.8417 15.1519 15.6464L15.6464 15.1519C15.8417 14.9566 15.8417 14.64 15.6464 14.4448L13.2017 12L15.6464 9.55521C15.8417 9.35995 15.8417 9.04337 15.6464 8.84811L15.1519 8.35355C14.9566 8.15829 14.64 8.15829 14.4448 8.35355L12 10.7983L9.55521 8.35355Z" fill="white"/>
</svg>
