<svg width="24" height="24" viewBox="0 0 24 24" fill="none" xmlns="http://www.w3.org/2000/svg">
<g clip-path="url(#clip0_269_1455)">
<path d="M19.0312 11.5406H19.0289L17.1117 11.5489C16.9277 10.7074 16.1766 10.0758 15.2812 10.0758C14.3859 10.0758 13.6254 10.7156 13.4473 11.5641L4.96641 11.5992C4.70742 11.6004 4.5 11.8114 4.5 12.0703C4.50117 12.3281 4.71094 12.5367 4.96875 12.5367H4.97109L13.4895 12.5016C13.725 13.268 14.4398 13.8258 15.2812 13.8258C16.1227 13.8258 16.8469 13.2598 17.0777 12.4864L19.0336 12.4781C19.2926 12.477 19.5012 12.266 19.5 12.0071C19.4988 11.7492 19.2891 11.5406 19.0312 11.5406ZM16.2164 12.0211C16.2035 12.1957 16.1414 12.3563 16.0465 12.491C15.8766 12.7313 15.5965 12.8883 15.2812 12.8883C14.966 12.8883 14.6906 12.7336 14.5207 12.4969C14.4234 12.3633 14.3613 12.2028 14.3473 12.0293C14.3449 12.0035 14.3438 11.9778 14.3438 11.9508C14.3438 11.8114 14.3742 11.6789 14.4293 11.5594C14.5781 11.2371 14.9039 11.0133 15.2812 11.0133C15.6586 11.0133 15.9797 11.2336 16.1297 11.5524C16.1871 11.6731 16.2188 11.809 16.2188 11.9508C16.2188 11.9742 16.2176 11.9977 16.2164 12.0211Z" fill="#190A33"/>
<path d="M19.0312 16.7555H19.0289L11.9473 16.7848C11.7492 15.9621 11.0074 15.3492 10.125 15.3492C9.24258 15.3492 8.49141 15.9703 8.29922 16.8L4.96641 16.8141C4.70742 16.8153 4.5 17.0262 4.5 17.2852C4.50117 17.543 4.71094 17.7516 4.96875 17.7516H4.97109L8.32266 17.7375C8.54531 18.5227 9.26953 19.0992 10.125 19.0992C10.9805 19.0992 11.7141 18.5156 11.932 17.7223L19.0336 17.693C19.2926 17.6918 19.5012 17.4809 19.5 17.2219C19.4988 16.9641 19.2891 16.7555 19.0312 16.7555ZM11.0613 17.2571C11.0555 17.4293 11.0027 17.591 10.9148 17.727C10.7484 17.9883 10.4566 18.1617 10.125 18.1617C9.79336 18.1617 9.50625 17.9906 9.33867 17.7328C9.25078 17.5969 9.1957 17.4375 9.18867 17.2653C9.1875 17.2512 9.1875 17.2383 9.1875 17.2242C9.1875 17.0707 9.225 16.9254 9.2918 16.7965C9.44648 16.4942 9.76289 16.2867 10.125 16.2867C10.4871 16.2867 10.7977 16.4906 10.9547 16.7895C11.0238 16.9196 11.0625 17.0672 11.0625 17.2242C11.0625 17.2348 11.0625 17.2465 11.0613 17.2571Z" fill="#190A33"/>
<path d="M19.0312 6.30701H19.0289L10.5422 6.34216C10.3465 5.51716 9.60352 4.90076 8.71875 4.90076C7.83398 4.90076 7.08164 5.52419 6.8918 6.3574L4.96641 6.3656C4.70742 6.36677 4.5 6.57771 4.5 6.83669C4.50117 7.09451 4.71094 7.3031 4.96875 7.3031H4.97109L6.91758 7.2949C7.14258 8.07771 7.86445 8.65076 8.71875 8.65076C9.57305 8.65076 10.3043 8.06951 10.5246 7.27966L19.0336 7.24451C19.2926 7.24334 19.5012 7.03357 19.5 6.77458C19.4988 6.5156 19.2891 6.30701 19.0312 6.30701ZM9.65508 6.81443C9.64805 6.98669 9.59414 7.14841 9.50508 7.28435C9.3375 7.54216 9.04805 7.71326 8.71875 7.71326C8.38945 7.71326 8.10352 7.54568 7.93711 7.29021C7.84687 7.15544 7.79063 6.9949 7.78242 6.82263C7.78125 6.8074 7.78125 6.79099 7.78125 6.77576C7.78125 6.62458 7.81758 6.48044 7.88203 6.35388C8.03672 6.04802 8.3543 5.83826 8.71875 5.83826C9.0832 5.83826 9.39609 6.04451 9.55195 6.34685C9.61875 6.47576 9.65625 6.62107 9.65625 6.77576C9.65625 6.78865 9.65625 6.80154 9.65508 6.81443Z" fill="#190A33"/>
</g>
<defs>
<clipPath id="clip0_269_1455">
<rect width="15" height="14.1984" fill="white" transform="translate(4.5 4.90076)"/>
</clipPath>
</defs>
</svg>
