<svg width="24" height="24" viewBox="0 0 24 24" fill="none" xmlns="http://www.w3.org/2000/svg">
<path d="M12 4.18821L18.5625 9.50886V19.7908L15.0422 19.8083V16.2589C15.0422 14.5857 13.6758 13.2252 11.9953 13.2252C10.3148 13.2252 8.94844 14.5857 8.94844 16.2589V19.8083L5.4375 19.7908V9.50886L12 4.18821ZM12 3.25476C11.7902 3.25476 11.5805 3.32477 11.4082 3.46479L4.8457 8.78544C4.62656 8.96279 4.5 9.22766 4.5 9.50886V19.7908C4.5 20.3042 4.91719 20.7219 5.43281 20.7242L9.65039 20.7452C9.65039 20.7452 9.65039 20.7452 9.65156 20.7452C9.78047 20.7452 9.88594 20.6414 9.88594 20.5119V16.2589C9.88594 15.099 10.8305 14.1586 11.9953 14.1586C13.1602 14.1586 14.1047 15.099 14.1047 16.2589V20.5119C14.1047 20.6414 14.2102 20.7452 14.3391 20.7452C14.3391 20.7452 14.3391 20.7452 14.3402 20.7452L18.5672 20.7242C19.0828 20.7219 19.5 20.3042 19.5 19.7908V9.50886C19.5 9.22766 19.3734 8.96279 19.1543 8.78544L12.5918 3.46479C12.4195 3.32477 12.2098 3.25476 12 3.25476Z" fill="#241B5E"/>
</svg>
