<svg width="24" height="24" viewBox="0 0 24 24" fill="none" stroke="currentColor" xmlns="http://www.w3.org/2000/svg">
<g clip-path="url(#clip0_154_1408)">
<path d="M17.9103 16.3143V17.0804H18.6774V16.3143H17.9103Z" fill="#241B5E"/>
<path d="M19.5242 11.1219L19.1898 10.2189L18.6774 8.83717V7.69581C18.6774 7.26728 18.3297 6.91956 17.9012 6.91956H4.89206C4.46354 6.91956 4.11581 7.26728 4.11581 7.69581V8.8341C4.11581 8.8341 4.11581 8.83615 4.11581 8.83717L3.06343 11.3091C2.999 11.4594 2.98161 11.6272 3.02047 11.7857C3.1565 12.3533 3.5707 12.8115 4.10968 13.0027C4.11275 13.0038 4.11581 13.0068 4.11581 13.0109V18.4058C4.11581 18.8354 4.46354 19.1821 4.89206 19.1821H6.97945C7.09093 19.1821 7.18093 19.0921 7.18093 18.9806V15.7815C7.18093 15.2701 7.42434 14.8038 7.80275 14.5133C8.02059 14.3456 8.28241 14.2351 8.56877 14.2085C8.61581 14.2024 8.66286 14.2004 8.71093 14.2004C9.13536 14.1993 9.51991 14.3711 9.79809 14.6493C10.0752 14.9265 10.2471 15.31 10.2471 15.7334V18.9806C10.2471 19.0921 10.3371 19.1821 10.4485 19.1821H17.9012C18.3297 19.1821 18.6774 18.8343 18.6774 18.4058V12.9506C18.6774 12.9506 18.6795 12.9434 18.6825 12.9424C18.8656 12.8565 19.0302 12.7389 19.1714 12.5967C19.2164 12.5507 19.2604 12.5016 19.2982 12.4505C19.3626 12.3707 19.4189 12.2848 19.468 12.1938C19.6439 11.8644 19.6541 11.4717 19.5242 11.1219ZM17.9104 18.416H11.0131V15.7334C11.0131 14.4652 9.98116 13.4343 8.714 13.4343C8.67104 13.4343 8.62911 13.4354 8.58718 13.4384C8.31002 13.4527 8.04513 13.5172 7.80275 13.6235C6.98661 13.9764 6.41491 14.7894 6.41491 15.7334V18.416H4.88184V13.0897C5.10479 13.0631 5.31547 12.9935 5.50366 12.8882C5.64479 12.8094 5.77468 12.7113 5.8882 12.5967C5.93013 12.5538 5.97002 12.5088 6.00888 12.4607C6.08559 12.5579 6.17354 12.6458 6.26968 12.7225C6.56116 12.9598 6.93241 13.1019 7.33638 13.1019C7.52968 13.1019 7.71582 13.0692 7.88968 13.0089C8.13922 12.923 8.36218 12.7808 8.54422 12.5967C8.58718 12.5538 8.62809 12.5088 8.66491 12.4607C8.73547 12.5486 8.81422 12.6294 8.90116 12.7021C9.19672 12.9516 9.57718 13.1019 9.99241 13.1019C10.4649 13.1019 10.8914 12.9086 11.2013 12.5967C11.2064 12.5916 11.2125 12.5855 11.2176 12.5793C11.2534 12.5415 11.2882 12.5026 11.322 12.4607C11.5715 12.7716 11.9254 12.9946 12.3314 13.0713C12.4347 13.0917 12.5421 13.1019 12.6505 13.1019C13.122 13.1019 13.5484 12.9086 13.8583 12.5967C13.9002 12.5538 13.9412 12.5088 13.979 12.4617C14.292 12.8524 14.7706 13.1019 15.3065 13.1019C15.778 13.1019 16.2055 12.9086 16.5154 12.5967C16.5573 12.5538 16.5972 12.5088 16.636 12.4617C16.9388 12.8401 17.3959 13.0856 17.9104 13.0999V18.416ZM18.6805 12.0035C18.6805 12.0035 18.6784 12.0066 18.6774 12.0076C18.5035 12.2091 18.2479 12.3349 17.9635 12.3349C17.9451 12.3349 17.9277 12.3339 17.9104 12.3329C17.8091 12.3288 17.712 12.3063 17.622 12.2715C17.309 12.1498 17.0748 11.8634 17.0247 11.5177C17.0237 11.5136 17.0237 11.5096 17.0237 11.5044C17.0175 11.4635 17.0145 11.4206 17.0145 11.3776V10.7517H16.2556V11.3776C16.2556 11.4196 16.2454 11.5177 16.2454 11.5177C16.1952 11.8634 15.961 12.1498 15.6481 12.2715C15.5417 12.3124 15.4262 12.3349 15.3065 12.3349C15.1868 12.3349 15.0733 12.3124 14.967 12.2715C14.653 12.1498 14.4188 11.8644 14.3676 11.5177C14.3676 11.5177 14.3584 11.4196 14.3584 11.3776V10.7517H13.5985V11.3776C13.5985 11.4196 13.5893 11.5177 13.5893 11.5177C13.5382 11.8634 13.305 12.1498 12.991 12.2715C12.8857 12.3124 12.7712 12.3349 12.6505 12.3349C12.5298 12.3349 12.4142 12.3124 12.3089 12.2715C11.9949 12.1498 11.7617 11.8634 11.7106 11.5177C11.7106 11.5177 11.7014 11.4196 11.7014 11.3776V10.7517H10.9425V11.3776C10.9425 11.4052 10.9384 11.4574 10.9343 11.4901C10.9333 11.5065 10.9323 11.5177 10.9323 11.5177C10.8934 11.7826 10.7472 12.0127 10.5385 12.1621C10.4751 12.206 10.4066 12.2439 10.334 12.2715C10.2287 12.3124 10.1131 12.3349 9.99241 12.3349C9.87172 12.3349 9.75718 12.3124 9.65184 12.2715C9.60991 12.2551 9.569 12.2357 9.53013 12.2132C9.29695 12.0813 9.12411 11.8522 9.06479 11.5811C9.0607 11.5597 9.05661 11.5392 9.05354 11.5177C9.05354 11.5177 9.04434 11.4196 9.04434 11.3776V10.7517H8.28547V11.3776C8.28547 11.4196 8.27627 11.5177 8.27627 11.5177C8.22513 11.8634 7.99195 12.1498 7.67695 12.2715C7.57059 12.3124 7.45604 12.3349 7.33638 12.3349C7.21672 12.3349 7.10218 12.3124 6.99581 12.2715C6.68184 12.1498 6.44866 11.8644 6.39752 11.5177C6.39752 11.5177 6.38831 11.4196 6.38831 11.3776V10.7517H5.62843V11.3776C5.62843 11.4206 5.62536 11.4635 5.61922 11.5044C5.61922 11.5096 5.61922 11.5136 5.6182 11.5177C5.60081 11.6374 5.56093 11.7509 5.50366 11.8522C5.39627 12.0424 5.22547 12.1917 5.02093 12.2715C4.97593 12.2879 4.92991 12.3032 4.88184 12.3134C4.81638 12.3277 4.74991 12.3349 4.67934 12.3349C4.46763 12.3349 4.27229 12.2654 4.11581 12.1467C4.03297 12.0854 3.96036 12.0107 3.90206 11.9258C3.76809 11.7335 3.75991 11.4799 3.86627 11.2723L4.1332 10.7517L4.48604 9.92331L4.75297 9.29637L4.82047 9.13581L4.88184 8.9916V7.6866H17.9104V8.97319L17.9584 9.10206L18.03 9.29637L18.57 10.7517L18.6027 10.8264L18.7827 11.2416C18.8932 11.4942 18.8615 11.7949 18.6805 12.0035Z" fill="#241B5E"/>
<path d="M15.8945 13.6635H12.946C12.7333 13.6635 12.54 13.7514 12.4009 13.8925C12.2639 14.0316 12.18 14.2208 12.18 14.4305V16.1742C12.18 16.5977 12.5236 16.9403 12.946 16.9403H15.8945C16.2699 16.9403 16.5828 16.6713 16.6483 16.3144C16.6575 16.2694 16.6616 16.2223 16.6616 16.1742V14.4305C16.6616 14.0071 16.3179 13.6635 15.8945 13.6635ZM15.8945 16.1742H12.946V14.4305H15.8945V16.1742Z" fill="#241B5E"/>
<path d="M19.5385 11.122L19.2051 10.2209C19.2051 10.2209 19.1949 10.2199 19.1898 10.2189L19.5242 11.122C19.6541 11.4717 19.6439 11.8645 19.468 12.1938C19.4189 12.2848 19.3626 12.3707 19.2982 12.4505V12.4689C19.3033 12.4628 19.3084 12.4566 19.3125 12.4505C19.377 12.3707 19.4332 12.2848 19.4823 12.1938C19.6582 11.8645 19.6684 11.4717 19.5385 11.122ZM20.9121 9.02026L20.0653 6.73548V5.59412C20.0653 5.1656 19.7175 4.81787 19.289 4.81787H6.27991C5.85037 4.81787 5.50366 5.1656 5.50366 5.59412V6.51048H6.26968V5.58389H19.2982V6.87049L19.3463 7.00037L19.4179 7.19469L19.9579 8.65003L20.1706 9.13992C20.281 9.39253 20.2483 9.69219 20.0683 9.90185C20.0673 9.90185 20.0663 9.90492 20.0653 9.90594C19.9507 10.0389 19.8004 10.1391 19.6296 10.1913L19.9221 10.9798C20.097 11.4513 20.0683 11.9647 19.8423 12.3881C19.7809 12.5006 19.7124 12.6059 19.6357 12.7011C19.5917 12.7593 19.5396 12.8197 19.4762 12.8851C19.4199 12.9424 19.3606 12.9956 19.2982 13.0447V16.3144H19.1008V17.0804H19.289C19.7175 17.0804 20.0653 16.7326 20.0653 16.3041V10.8489C20.0653 10.8489 20.0673 10.8417 20.0704 10.8407C20.2534 10.7538 20.4181 10.6372 20.5592 10.495C20.6758 10.3764 20.776 10.2404 20.8558 10.0921C21.0317 9.76276 21.042 9.37003 20.9121 9.02026ZM19.2982 12.4505V12.4689C19.3033 12.4628 19.3084 12.4566 19.3125 12.4505C19.377 12.3707 19.4332 12.2848 19.4823 12.1938C19.6582 11.8645 19.6684 11.4717 19.5385 11.122L19.2051 10.2209C19.2051 10.2209 19.1949 10.2199 19.1898 10.2189L19.5242 11.122C19.6541 11.4717 19.6439 11.8645 19.468 12.1938C19.4189 12.2848 19.3626 12.3707 19.2982 12.4505Z" fill="#241B5E"/>
</g>
<defs>
<clipPath id="clip0_154_1408">
<rect width="18" height="14.3642" fill="white" transform="translate(3 4.81787)"/>
</clipPath>
</defs>
</svg>
