<svg width="24" height="24" viewBox="0 0 24 24" fill="none" stroke="currentColor" xmlns="http://www.w3.org/2000/svg">
<g clip-path="url(#clip0_154_1429)">
<path d="M15.212 20.072H5.35696V6.3607H7.07088C7.07088 6.83417 7.45437 7.21766 7.92784 7.21766H12.6411C13.1146 7.21766 13.4981 6.83417 13.4981 6.3607H15.212V13.6449H16.0689V6.3607C16.0689 5.88723 15.6855 5.50374 15.212 5.50374H13.4981C13.4981 5.03027 13.1146 4.64678 12.6411 4.64678H11.8602C11.8602 4.21187 11.6835 3.81767 11.3985 3.53273C11.1136 3.24779 10.7194 3.07104 10.2845 3.07104C9.84957 3.07104 9.45537 3.24779 9.17043 3.53273C8.88549 3.81767 8.70874 4.21187 8.70874 4.64678H7.92784C7.45437 4.64678 7.07088 5.03027 7.07088 5.50374H5.35696C4.88349 5.50374 4.5 5.88723 4.5 6.3607V20.072C4.5 20.5455 4.88349 20.929 5.35696 20.929H15.212C15.6855 20.929 16.0689 20.5455 16.0689 20.072V19.2151H15.212V20.072ZM8.99047 5.50374C9.30861 5.50374 9.5657 5.24665 9.5657 4.9285V4.67356C9.5657 4.49681 9.61926 4.32113 9.73388 4.18616C9.87421 4.02013 10.0724 3.928 10.2845 3.928C10.4966 3.928 10.6958 4.02013 10.8351 4.18616C10.9486 4.32113 11.0032 4.49681 11.0032 4.67356V4.9285C11.0032 5.24665 11.2603 5.50374 11.5785 5.50374H12.6411V6.3607H7.92784V5.50374H8.99047Z" fill="#241B5E"/>
<path d="M17.7828 17.0331C17.5461 17.0331 17.3544 17.2291 17.3544 17.4712V17.9093H14.355V14.9507H17.244L18.2585 14.0734H13.498V18.7866H18.2113V17.4712C18.2113 17.2291 18.0196 17.0331 17.7828 17.0331Z" fill="#241B5E"/>
<path d="M15.2398 15.3727L14.6335 15.979L16.1996 17.545L19.5 14.716L18.943 14.0658L16.2446 16.3785L15.2398 15.3727Z" fill="#241B5E"/>
<path d="M13.9266 8.51489H8.35634C8.1196 8.51489 7.92786 8.70664 7.92786 8.94337C7.92786 9.18011 8.1196 9.37185 8.35634 9.37185H13.9266C14.1633 9.37185 14.3551 9.18011 14.3551 8.94337C14.3551 8.70664 14.1633 8.51489 13.9266 8.51489Z" fill="#241B5E"/>
<path d="M13.9266 10.6455H8.35634C8.1196 10.6455 7.92786 10.8373 7.92786 11.074C7.92786 11.3107 8.1196 11.5025 8.35634 11.5025H13.9266C14.1633 11.5025 14.3551 11.3107 14.3551 11.074C14.3551 10.8373 14.1633 10.6455 13.9266 10.6455Z" fill="#241B5E"/>
<path d="M14.3551 13.2163C14.3551 12.9796 14.1633 12.7878 13.9266 12.7878H8.35634C8.1196 12.7878 7.92786 12.9796 7.92786 13.2163C7.92786 13.4531 8.1196 13.6448 8.35634 13.6448H13.9266C14.1633 13.6448 14.3551 13.4531 14.3551 13.2163Z" fill="#241B5E"/>
<path d="M12.6411 14.9303H8.35634C8.1196 14.9303 7.92786 15.122 7.92786 15.3588C7.92786 15.5955 8.1196 15.7873 8.35634 15.7873H12.6411V14.9303Z" fill="#241B5E"/>
<path d="M7.92786 17.5011C7.92786 17.7378 8.1196 17.9296 8.35634 17.9296H12.6411V17.0726H8.35634C8.1196 17.0726 7.92786 17.2644 7.92786 17.5011Z" fill="#241B5E"/>
<path d="M6.62527 8.46667C6.39817 8.46667 6.21393 8.65092 6.21393 8.87802C6.21393 9.10511 6.39817 9.28936 6.62527 9.28936C6.85236 9.28936 7.03661 9.10511 7.03661 8.87802C7.03661 8.65092 6.85236 8.46667 6.62527 8.46667Z" fill="#241B5E"/>
<path d="M6.62527 10.6626C6.39817 10.6626 6.21393 10.8468 6.21393 11.0739C6.21393 11.301 6.39817 11.4853 6.62527 11.4853C6.85236 11.4853 7.03661 11.301 7.03661 11.0739C7.03661 10.8468 6.85236 10.6626 6.62527 10.6626Z" fill="#241B5E"/>
<path d="M6.62527 12.8051C6.39817 12.8051 6.21393 12.9893 6.21393 13.2164C6.21393 13.4435 6.39817 13.6277 6.62527 13.6277C6.85236 13.6277 7.03661 13.4435 7.03661 13.2164C7.03661 12.9893 6.85236 12.8051 6.62527 12.8051Z" fill="#241B5E"/>
<path d="M6.62527 14.9474C6.39817 14.9474 6.21393 15.1316 6.21393 15.3587C6.21393 15.5858 6.39817 15.7701 6.62527 15.7701C6.85236 15.7701 7.03661 15.5858 7.03661 15.3587C7.03661 15.1316 6.85236 14.9474 6.62527 14.9474Z" fill="#241B5E"/>
<path d="M6.62527 17.1338C6.39817 17.1338 6.21393 17.318 6.21393 17.5451C6.21393 17.7722 6.39817 17.9565 6.62527 17.9565C6.85236 17.9565 7.03661 17.7722 7.03661 17.5451C7.03661 17.318 6.85236 17.1338 6.62527 17.1338Z" fill="#241B5E"/>
</g>
<defs>
<clipPath id="clip0_154_1429">
<rect width="15" height="17.858" fill="white" transform="translate(4.5 3.07104)"/>
</clipPath>
</defs>
</svg>
