<svg width="24" height="24" viewBox="0 0 24 24" fill="none" stroke="currentColor" xmlns="http://www.w3.org/2000/svg">
<g clip-path="url(#clip0_154_1417)">
<path d="M18.1806 6.21498L18.3776 6.61534C18.3818 6.62381 18.3903 6.63016 18.3988 6.63122L18.8405 6.69583C18.8638 6.69901 18.8733 6.72866 18.8563 6.74455L18.5365 7.05594C18.5301 7.06229 18.5269 7.07182 18.528 7.08136L18.6032 7.5209C18.6074 7.5442 18.5831 7.5622 18.5619 7.55161L18.1668 7.34402C18.1584 7.33979 18.1488 7.33979 18.1404 7.34402L17.7453 7.55161C17.7241 7.5622 17.6998 7.54526 17.704 7.5209L17.7792 7.08136C17.7813 7.07182 17.7781 7.06229 17.7707 7.05594L17.4509 6.74455C17.4339 6.72761 17.4435 6.69901 17.4668 6.69583L17.9084 6.63122C17.9179 6.63016 17.9254 6.62381 17.9296 6.61534L18.1266 6.21498C18.1372 6.1938 18.1679 6.1938 18.1785 6.21498H18.1806Z" fill="#241B5E"/>
<path d="M18.155 6.1991C18.1444 6.1991 18.1349 6.20439 18.1296 6.21498L17.9326 6.61534C17.9284 6.62381 17.9199 6.63016 17.9114 6.63122L17.4697 6.69583C17.4464 6.69901 17.4369 6.72866 17.4539 6.74455L17.7737 7.05594C17.7801 7.06229 17.7833 7.07182 17.7822 7.08136L17.707 7.5209C17.7038 7.53996 17.7186 7.55479 17.7356 7.55479C17.7398 7.55479 17.7441 7.55479 17.7494 7.55161L18.1444 7.34402C18.1444 7.34402 18.1529 7.34084 18.1582 7.34084C18.1635 7.34084 18.1677 7.3419 18.172 7.34402L18.567 7.55161C18.567 7.55161 18.5755 7.55479 18.5808 7.55479C18.5977 7.55479 18.6126 7.53996 18.6094 7.5209L18.5342 7.08136C18.5321 7.07182 18.5352 7.06229 18.5426 7.05594L18.8625 6.74455C18.8795 6.72761 18.8699 6.69901 18.8466 6.69583L18.405 6.63122C18.3954 6.63016 18.388 6.62381 18.3838 6.61534L18.1868 6.21498C18.1815 6.20439 18.1709 6.1991 18.1614 6.1991H18.155Z" fill="#241B5E"/>
<path d="M15.2002 15.7621L15.0943 15.654L14.75 15.3013L14.6441 15.1933V15.7726H8.02454C7.78199 15.7726 7.54369 15.8722 7.37211 16.047L5.79929 17.6558V16.6909C5.79929 16.1847 5.38941 15.7726 4.88526 15.7726H3.85896V9.67097H4.47749V8.81201H3.75305C3.33786 8.81201 3 9.15623 3 9.57883V15.8637C3 16.2874 3.33786 16.6316 3.75305 16.6316H4.88526C4.91598 16.6316 4.94034 16.6581 4.94034 16.6909V19.1036C4.94034 19.253 5.06108 19.3748 5.20936 19.3748C5.27926 19.3748 5.34704 19.3462 5.39788 19.2943L7.98641 16.6475C7.99594 16.638 8.01077 16.6316 8.02454 16.6316H14.75C15.1027 16.6316 15.3993 16.3838 15.4808 16.0491L15.3908 15.9569L15.2002 15.7621Z" fill="#241B5E"/>
<path d="M16.2159 7.53786H7.44306C7.20899 7.53786 7.01941 7.34827 7.01941 7.11421C7.01941 6.88014 7.20899 6.69055 7.44306 6.69055H16.2159C16.4499 6.69055 16.6395 6.88014 16.6395 7.11421C16.6395 7.34827 16.4499 7.53786 16.2159 7.53786Z" fill="#241B5E"/>
<path d="M18.4581 9.23244H7.44306C7.20899 9.23244 7.01941 9.04285 7.01941 8.80879C7.01941 8.57472 7.20899 8.38513 7.44306 8.38513H18.4581C18.6921 8.38513 18.8817 8.57472 18.8817 8.80879C18.8817 9.04285 18.6921 9.23244 18.4581 9.23244Z" fill="#241B5E"/>
<path d="M18.4581 10.9038H7.44306C7.20899 10.9038 7.01941 10.7142 7.01941 10.4802C7.01941 10.2461 7.20899 10.0565 7.44306 10.0565H18.4581C18.6921 10.0565 18.8817 10.2461 18.8817 10.4802C18.8817 10.7142 18.6921 10.9038 18.4581 10.9038Z" fill="#241B5E"/>
<path d="M18.4581 12.5031H12.1033C11.8692 12.5031 11.6796 12.3135 11.6796 12.0794C11.6796 11.8453 11.8692 11.6558 12.1033 11.6558H18.4581C18.6922 11.6558 18.8817 11.8453 18.8817 12.0794C18.8817 12.3135 18.6922 12.5031 18.4581 12.5031Z" fill="#241B5E"/>
<path d="M20.1474 5.47255C20.1474 5.47255 20.1527 5.48103 20.1527 5.49162V13.7222C20.1527 13.7327 20.1495 13.738 20.1474 13.7412H18.6699C18.0863 13.7412 17.6107 14.2189 17.6107 14.8057V16.4092L15.3135 14.06C15.1154 13.8577 14.84 13.7412 14.5583 13.7412H5.75373C5.75373 13.7412 5.74843 13.7327 5.74843 13.7222V5.49162C5.74843 5.48103 5.75161 5.47573 5.75373 5.47255H20.1474ZM20.1527 4.62524H5.74843C5.28029 4.62524 4.90112 5.01289 4.90112 5.49162V13.7222C4.90112 14.2009 5.28029 14.5885 5.74843 14.5885H14.5573C14.6134 14.5885 14.6674 14.6118 14.7066 14.6521L18.0958 18.1176C18.1393 18.1621 18.1922 18.1811 18.2441 18.1811C18.3532 18.1811 18.457 18.0943 18.457 17.964V14.8046C18.457 14.6849 18.5523 14.5875 18.6688 14.5875H20.1516C20.6197 14.5875 20.9989 14.1998 20.9989 13.7211V5.49162C20.9989 5.01289 20.6197 4.62524 20.1516 4.62524H20.1527Z" fill="#241B5E"/>
</g>
<defs>
<clipPath id="clip0_154_1417">
<rect width="18" height="14.7495" fill="white" transform="translate(3 4.62524)"/>
</clipPath>
</defs>
</svg>
