<svg width="24" height="24" viewBox="0 0 24 24" fill="none" xmlns="http://www.w3.org/2000/svg">
<path d="M19.3123 18.4242L16.9338 16.088C18.1398 14.7378 18.77 12.9824 18.693 11.187C18.616 9.39155 17.8379 7.69448 16.5205 6.44893C15.2032 5.20339 13.4481 4.50533 11.6206 4.50003C9.79304 4.49473 8.03381 5.1826 6.70902 6.42048C5.38424 7.65837 4.59594 9.3509 4.5082 11.1458C4.42045 12.9408 5.04001 14.6999 6.23794 16.057C7.43587 17.4141 9.11989 18.2647 10.9395 18.4318C12.7591 18.5989 14.5742 18.0696 16.007 16.954L18.406 19.3154C18.4655 19.3739 18.5361 19.4204 18.6139 19.452C18.6916 19.4837 18.775 19.5 18.8591 19.5C18.9433 19.5 19.0266 19.4837 19.1044 19.452C19.1821 19.4204 19.2528 19.3739 19.3123 19.3154C19.3718 19.2569 19.419 19.1874 19.4512 19.111C19.4834 19.0345 19.5 18.9526 19.5 18.8698C19.5 18.7871 19.4834 18.7051 19.4512 18.6287C19.419 18.5522 19.3718 18.4827 19.3123 18.4242ZM5.80942 11.4961C5.80942 10.3673 6.14982 9.26389 6.78759 8.32535C7.42536 7.38681 8.33184 6.65531 9.39241 6.22334C10.453 5.79138 11.62 5.67836 12.7459 5.89857C13.8718 6.11878 14.906 6.66234 15.7177 7.4605C16.5294 8.25866 17.0822 9.27558 17.3062 10.3827C17.5301 11.4897 17.4152 12.6373 16.9759 13.6801C16.5366 14.723 15.7926 15.6143 14.8382 16.2414C13.8837 16.8685 12.7615 17.2032 11.6136 17.2032C10.0748 17.2012 8.5997 16.5993 7.51165 15.5294C6.42361 14.4596 5.81145 13.0091 5.80942 11.4961Z" fill="#241B5E"/>
</svg>
