<svg width="26" height="24" viewBox="0 0 26 24" fill="none" xmlns="http://www.w3.org/2000/svg">
<path d="M21.905 10.6472L20.9874 8.1726V8.16845V6.93528C20.9874 6.47128 20.6106 6.09448 20.1466 6.09448H6.05029C5.5863 6.09448 5.20949 6.47128 5.20949 6.93528V8.16845V8.1726L4.06871 10.8507C3.99916 11.0137 3.98048 11.1953 4.022 11.3676C4.17043 11.9821 4.61886 12.4783 5.20223 12.6859C5.20638 12.687 5.20949 12.6901 5.20949 12.6953C5.20949 12.8759 5.20949 16.7861 5.20949 18.5414C5.20949 19.0054 5.5863 19.3822 6.05029 19.3822H8.31318C8.43359 19.3822 8.53116 19.2846 8.53116 19.1642V15.6983C8.53116 14.7734 9.26401 13.9866 10.1889 13.9845C10.6487 13.9845 11.065 14.1693 11.367 14.4703C11.667 14.7713 11.8528 15.1865 11.8528 15.6453V19.1642C11.8528 19.2846 11.9504 19.3822 12.0708 19.3822H20.1466C20.6106 19.3822 20.9874 19.0054 20.9874 18.5414V12.6299C20.9874 12.6299 20.9895 12.6226 20.9936 12.6205C21.1919 12.5271 21.3704 12.4005 21.523 12.2468C21.6497 12.1181 21.7587 11.9718 21.8438 11.8109C22.0337 11.4538 22.0462 11.0272 21.905 10.6472ZM20.156 18.5507H12.6822V15.6443C12.6822 14.2699 11.5643 13.153 10.191 13.153C8.81766 13.153 7.69971 14.2699 7.69971 15.6443V18.5507H6.03887V12.7793C6.46239 12.7295 6.8423 12.5354 7.1288 12.2458C7.17447 12.1991 7.21807 12.1503 7.25959 12.0984C7.59798 12.5219 8.11699 12.7928 8.69828 12.7928C9.20899 12.7928 9.67195 12.5842 10.0072 12.2458C10.0539 12.1991 10.0975 12.1503 10.138 12.0984C10.4775 12.5219 10.9954 12.7928 11.5767 12.7928C12.0885 12.7928 12.5504 12.5842 12.8857 12.2458C12.9313 12.1991 12.9749 12.1503 13.0165 12.0984C13.3559 12.5219 13.8749 12.7928 14.4562 12.7928C14.9669 12.7928 15.4299 12.5842 15.7651 12.2458C15.8108 12.1991 15.8544 12.1503 15.8959 12.0994C16.2354 12.5229 16.7533 12.7928 17.3346 12.7928C17.8453 12.7928 18.3083 12.5842 18.6436 12.2458C18.6892 12.1991 18.7328 12.1503 18.7744 12.0994C19.1024 12.5095 19.5985 12.7752 20.156 12.7908V18.5507ZM20.9905 11.6033C20.9905 11.6033 20.9885 11.6064 20.9864 11.6074C20.7985 11.8254 20.5213 11.9624 20.2131 11.9624C20.1933 11.9624 20.1746 11.9614 20.156 11.9603C20.0459 11.9552 19.9411 11.9313 19.8435 11.8929C19.5041 11.761 19.2508 11.4507 19.1958 11.077C19.1948 11.0718 19.1948 11.0676 19.1948 11.0625C19.1885 11.0178 19.1854 10.9711 19.1854 10.9244V10.2466H18.3623V10.9244C18.3623 10.9701 18.3519 11.077 18.3519 11.077C18.2969 11.4507 18.0436 11.761 17.7042 11.8929C17.5889 11.9375 17.4644 11.9624 17.3346 11.9624C17.2049 11.9624 17.0813 11.9375 16.9661 11.8929C16.6257 11.761 16.3724 11.4517 16.3174 11.077C16.3174 11.077 16.307 10.9701 16.307 10.9244V10.2466H15.4838V10.9244C15.4838 10.9701 15.4734 11.077 15.4734 11.077C15.4184 11.4507 15.1652 11.761 14.8257 11.8929C14.7115 11.9375 14.587 11.9624 14.4562 11.9624C14.3254 11.9624 14.2008 11.9375 14.0867 11.8929C13.7462 11.761 13.4929 11.4507 13.4379 11.077C13.4379 11.077 13.4275 10.9701 13.4275 10.9244V10.2466H12.6054V10.9244C12.6054 10.9701 12.595 11.077 12.595 11.077C12.54 11.4507 12.2867 11.761 11.9463 11.8929C11.8321 11.9375 11.7075 11.9624 11.5767 11.9624C11.4459 11.9624 11.3214 11.9375 11.2072 11.8929C10.8677 11.761 10.6145 11.4507 10.5595 11.077C10.5595 11.077 10.5491 10.9701 10.5491 10.9244V10.2466H9.72696V10.9244C9.72696 10.9701 9.71658 11.077 9.71658 11.077C9.66157 11.4507 9.40829 11.761 9.06782 11.8929C8.9526 11.9375 8.82804 11.9624 8.69828 11.9624C8.56853 11.9624 8.44501 11.9375 8.32979 11.8929C7.98932 11.761 7.73604 11.4517 7.68102 11.077C7.68102 11.077 7.67064 10.9701 7.67064 10.9244V10.2466H6.84749V10.9244C6.84749 10.9711 6.84438 11.0178 6.83815 11.0625C6.83815 11.0676 6.83815 11.0718 6.83711 11.077C6.7821 11.4507 6.52882 11.761 6.18939 11.8929C6.1406 11.9116 6.09077 11.9271 6.03887 11.9385C5.96829 11.9541 5.89563 11.9624 5.81985 11.9624C5.59045 11.9624 5.37869 11.8866 5.20846 11.7579C5.11919 11.6915 5.0403 11.6105 4.97698 11.5192C4.83165 11.3116 4.82335 11.0365 4.93857 10.8102L5.22714 10.2466L5.89874 8.66981L5.97244 8.49543L6.03887 8.33972V6.9249H20.156V8.31896L20.2079 8.4591L20.2857 8.66981L20.8701 10.2466L21.1006 10.777C21.2199 11.051 21.1867 11.3759 20.9905 11.6033Z" fill="#241B5E"/>
<path d="M18.1506 13.8634H14.9555C14.4967 13.8634 14.1251 14.235 14.1251 14.6938V16.5841C14.1251 17.0429 14.4967 17.4145 14.9555 17.4145H18.1506C18.6094 17.4145 18.981 17.0429 18.981 16.5841V14.6938C18.981 14.235 18.6094 13.8634 18.1506 13.8634ZM18.1506 16.5841H14.9555V14.6938H18.1506V16.5841Z" fill="#241B5E"/>
</svg>
