<svg width="24" height="24" viewBox="0 0 24 24" fill="none" xmlns="http://www.w3.org/2000/svg">
<path d="M12 20C16.4183 20 20 16.4183 20 12C20 7.58172 16.4183 4 12 4C7.58172 4 4 7.58172 4 12C4 16.4183 7.58172 20 12 20Z" fill="#2ECC71"/>
<path d="M16.8249 9.57419L11.811 15.1321L11.2024 15.8067C11.0188 16.0102 10.7483 16.053 10.5261 15.9352C10.5068 15.9245 10.4875 15.9031 10.4682 15.8817L9.84989 15.1963L7.14491 12.1978C6.9517 11.9837 6.9517 11.6303 7.14491 11.4161L7.68591 10.8164C7.87912 10.6022 8.19792 10.6022 8.39113 10.8164L10.8063 13.4936L15.5883 8.19276C15.8202 7.93575 16.2066 7.93575 16.4385 8.19276L16.8345 8.63182C17.0567 8.88883 17.0567 9.30647 16.8249 9.57419Z" fill="white"/>
</svg>
