<svg width="20" height="20" viewBox="0 0 20 20" fill="none" xmlns="http://www.w3.org/2000/svg">
<path d="M10 16C13.3137 16 16 13.3137 16 10C16 6.68629 13.3137 4 10 4C6.68629 4 4 6.68629 4 10C4 13.3137 6.68629 16 10 16Z" fill="#2ECC71"/>
<path d="M13.8599 8.18064L9.8488 12.349L9.36191 12.855C9.21507 13.0076 8.99867 13.0398 8.82091 12.9514C8.80545 12.9434 8.79 12.9273 8.77454 12.9113L8.27991 12.3972L6.11593 10.1484C5.96136 9.98775 5.96136 9.72271 6.11593 9.56208L6.54872 9.11231C6.70329 8.95168 6.95834 8.95168 7.11291 9.11231L9.04504 11.1202L12.8707 7.14457C13.0561 6.95181 13.3653 6.95181 13.5508 7.14457L13.8676 7.47386C14.0454 7.66662 14.0454 7.97985 13.8599 8.18064Z" fill="white"/>
</svg>
