<svg width="24" height="24" viewBox="0 0 24 24" fill="none" xmlns="http://www.w3.org/2000/svg">
<g clip-path="url(#clip0_146_1256)">
<path d="M12.5232 11.6883C12.1684 11.5014 11.7946 11.3525 11.4085 11.2406C12.2871 10.6731 12.8892 9.71618 12.9732 8.60254C12.9799 8.51301 12.9832 8.42347 12.9832 8.33953C12.9832 7.99256 12.9329 7.6512 12.8322 7.3255C12.3845 5.86714 11.0571 4.88782 9.53042 4.88782C7.62661 4.88782 6.07759 6.43683 6.07759 8.33953C6.07759 9.57068 6.70884 10.6451 7.67138 11.2562C7.10281 11.423 6.55998 11.6681 6.0664 11.9893C4.26556 13.1601 3.36122 15.103 3.51791 17.4579L3.53246 17.6706L3.70594 17.7937C5.36688 18.9711 7.44865 19.5598 9.53154 19.5598C11.6144 19.5598 13.6951 18.9711 15.356 17.7937L15.5239 17.6739L15.5429 17.468C15.5586 17.2867 15.5664 17.1053 15.5664 16.9296V16.9184C15.506 14.5457 14.4248 12.6889 12.5232 11.6883ZM6.97298 8.33953C6.97298 6.93041 8.12019 5.7832 9.53042 5.7832C10.662 5.7832 11.6446 6.50846 11.9759 7.58964C12.0509 7.83028 12.0879 8.0821 12.0879 8.33953C12.0879 8.4022 12.0856 8.46824 12.0811 8.53539C11.9815 9.83818 10.9261 10.85 9.62108 10.8947C9.59086 10.8936 9.56064 10.8936 9.53042 10.8936C9.5002 10.8936 9.46998 10.8936 9.43976 10.8947C8.05639 10.8477 6.97298 9.72849 6.97298 8.33953ZM14.6643 17.1814C11.7443 19.1334 7.32442 19.1345 4.40098 17.1848C4.33159 15.2642 5.09155 13.6917 6.55438 12.7403C8.17055 11.6883 10.4023 11.5842 12.1058 12.4807C13.7063 13.3223 14.6173 14.9049 14.671 16.9352C14.671 17.0169 14.6688 17.0986 14.6643 17.1814Z" fill="#241B5E"/>
<path d="M20.5 15.2363V15.2475C20.5 15.4064 20.4921 15.5698 20.4787 15.7332L20.4597 15.9392L20.2918 16.0589C19.045 16.9431 17.534 17.4568 15.9794 17.6012L15.9872 17.5072C16.004 17.3125 16.013 17.1188 16.013 16.9252V16.9062C16.0107 16.8323 16.0085 16.7584 16.004 16.6857C17.3012 16.5503 18.557 16.1384 19.6001 15.4467C19.6035 15.3818 19.6046 15.3169 19.6046 15.2531C19.5565 13.4567 18.7517 12.0588 17.3382 11.3145C15.9548 10.587 14.1808 10.6049 12.7941 11.3291C12.6329 11.2418 12.4673 11.1623 12.2994 11.0907C12.5344 10.8545 12.7392 10.587 12.9071 10.296C13.0314 10.2456 13.1589 10.2009 13.2865 10.1617C13.2093 10.1102 13.1354 10.0542 13.0638 9.99493C13.2037 9.69721 13.3067 9.37711 13.366 9.04246C13.7577 9.49463 14.3297 9.78563 14.9777 9.80802C15.0325 9.80578 15.0863 9.80578 15.14 9.80802C16.2805 9.76772 17.2038 8.88241 17.29 7.74304C17.2945 7.68372 17.2967 7.62552 17.2967 7.57179C17.2967 7.34683 17.2632 7.12634 17.1983 6.91592C16.9084 5.97017 16.0488 5.33557 15.0594 5.33557C14.1651 5.33557 13.3906 5.86273 13.0325 6.62269C12.8859 6.31826 12.7012 6.03845 12.4852 5.78886C13.0504 4.97406 13.9939 4.44019 15.0594 4.44019C16.4439 4.44019 17.6482 5.32885 18.0545 6.65179C18.1451 6.94726 18.1921 7.25729 18.1921 7.57179C18.1921 7.6479 18.1888 7.72849 18.1832 7.81131C18.1093 8.78616 17.5967 9.62894 16.8457 10.1471C17.1602 10.2445 17.4646 10.3688 17.7545 10.5221C19.4703 11.4242 20.4451 13.0986 20.5 15.2363Z" fill="#241B5E"/>
</g>
<defs>
<clipPath id="clip0_146_1256">
<rect width="17" height="15.1197" fill="white" transform="translate(3.5 4.44019)"/>
</clipPath>
</defs>
</svg>
