<svg width="16" height="17" viewBox="0 0 16 17" fill="none" xmlns="http://www.w3.org/2000/svg">
<g clip-path="url(#clip0_1246_985)">
<path d="M13.2441 8.11204V15.617H0.882941V3.25587H8.38794V2.37292H0.882941C0.395116 2.37292 0 2.76804 0 3.25587V15.617C0 16.1049 0.395116 16.5 0.882941 16.5H13.2441C13.7319 16.5 14.1271 16.1049 14.1271 15.617V8.11204H13.2441Z" fill="#B9B3DA"/>
<path d="M15.4514 1.04853C15.2682 0.865317 15.0574 0.728461 14.8323 0.636856C14.606 0.545251 14.3665 0.5 14.127 0.5C13.648 0.5 13.1679 0.68321 12.8026 1.04853L7.71356 6.13758C7.57781 6.27333 7.49062 6.44882 7.46302 6.63755L7.10543 9.1451C7.08557 9.27975 7.19152 9.39674 7.32286 9.39674C7.33389 9.39674 7.34383 9.39674 7.35486 9.39453L9.86242 9.03694C10.0511 9.00935 10.2266 8.92216 10.3624 8.7864L15.4514 3.69735C16.1832 2.96561 16.1832 1.78026 15.4514 1.04853ZM9.7377 8.16283L8.10426 8.3957L8.33714 6.76226L12.4229 2.67755L13.8456 4.05384L9.7377 8.16283ZM14.8268 3.07267L14.4703 3.42916L13.0476 2.05287L13.4273 1.67321C13.6138 1.48558 13.8621 1.38294 14.127 1.38294C14.3919 1.38294 14.6402 1.48558 14.8268 1.67321C15.213 2.05839 15.213 2.68749 14.8268 3.07267Z" fill="#B9B3DA"/>
</g>
<defs>
<clipPath id="clip0_1246_985">
<rect width="16" height="16" fill="white" transform="translate(0 0.5)"/>
</clipPath>
</defs>
</svg>
