<svg width="24" height="24" viewBox="0 0 24 24" fill="none" stroke="currentColor" xmlns="http://www.w3.org/2000/svg">
<g clip-path="url(#clip0_153_1385)">
<path d="M11.9994 4C7.58171 4 4 7.58198 4 12C4 14.3303 4.99572 16.4276 6.58479 17.8883C6.8106 18.0973 7.04962 18.2919 7.29945 18.4733C8.61947 19.4342 10.2422 20 12.0006 20C13.759 20 15.3649 19.439 16.6801 18.4889C16.93 18.3075 17.1678 18.1141 17.3948 17.9063C18.9959 16.4432 20 14.3387 20 11.9988C20 7.58198 16.4183 4 11.9994 4ZM11.9994 19.2781C10.3251 19.2781 8.78162 18.7099 7.55048 17.7562C7.894 16.991 8.44051 16.3508 9.17078 15.8763C10.7034 14.8793 12.8186 14.7808 14.4341 15.63C15.3457 16.1105 16.0219 16.8432 16.4267 17.7706C15.1992 18.7147 13.6629 19.2781 11.997 19.2781H11.9994ZM9.56835 11.7033C9.56835 10.3676 10.6554 9.27928 11.9934 9.27928C13.066 9.27928 13.998 9.96757 14.3115 10.9922C14.3824 11.2204 14.4172 11.4595 14.4172 11.7033C14.4172 11.7634 14.4148 11.8258 14.4112 11.8883C14.3175 13.1243 13.317 14.0829 12.0787 14.1261C12.0498 14.1261 12.021 14.1261 11.9934 14.1261C11.9658 14.1261 11.9357 14.1261 11.9081 14.1261C10.5953 14.0817 9.56835 13.021 9.56835 11.7033ZM17.0993 17.1868C16.6105 16.1994 15.8442 15.4114 14.8316 14.8793C14.4953 14.7015 14.141 14.5598 13.7746 14.4541C14.607 13.9159 15.1787 13.009 15.258 11.9532C15.264 11.8679 15.2676 11.7838 15.2676 11.7033C15.2676 11.3742 15.2196 11.0511 15.1235 10.7411C14.6995 9.35856 13.4407 8.43003 11.9934 8.43003C10.1881 8.43003 8.71917 9.8991 8.71917 11.7033C8.71917 12.8709 9.31732 13.8895 10.2302 14.4697C9.69086 14.627 9.17679 14.8601 8.70836 15.1652C7.90842 15.6853 7.29465 16.3664 6.88387 17.1736C5.54943 15.8535 4.72187 14.0228 4.72187 12.0012C4.72307 7.98799 7.98769 4.72312 11.9994 4.72312C16.0111 4.72312 19.2757 7.98799 19.2757 12C19.2757 14.0288 18.4422 15.8655 17.0993 17.1868Z" fill="#190A33"/>
</g>
<defs>
<clipPath id="clip0_153_1385">
<rect width="24" height="24" fill="white"/>
</clipPath>
</defs>
</svg>
