<svg width="24" height="24" viewBox="0 0 24 24" fill="none" xmlns="http://www.w3.org/2000/svg">
<path fill-rule="evenodd" clip-rule="evenodd" d="M12 6.54541C8.36364 6.54541 5.25818 8.80723 4 12C5.25818 15.1927 8.36364 17.4545 12 17.4545C15.6364 17.4545 18.7418 15.1927 20 12C18.7418 8.80723 15.6364 6.54541 12 6.54541ZM12 15.6363C9.9927 15.6363 8.36361 14.0072 8.36361 12C8.36361 9.9927 9.9927 8.36361 12 8.36361C14.0072 8.36361 15.6363 9.9927 15.6363 12C15.6363 14.0072 14.0072 15.6363 12 15.6363ZM12 9.81812C10.7927 9.81812 9.8182 10.7927 9.8182 11.9999C9.8182 13.2072 10.7927 14.1818 12 14.1818C13.2073 14.1818 14.1818 13.2072 14.1818 11.9999C14.1818 10.7927 13.2073 9.81812 12 9.81812Z" fill="#241B5E"/>
</svg>
