<svg width="24" height="24" viewBox="0 0 24 24" fill="none" stroke="currentColor" xmlns="http://www.w3.org/2000/svg">
<g clip-path="url(#clip0_170_5669)">
<path d="M12 13.4896C11.0859 13.4896 10.3418 12.7383 10.3418 11.8154C10.3418 10.8925 11.0859 10.1412 12 10.1412C12.9141 10.1412 13.6582 10.8925 13.6582 11.8154C13.6582 12.7383 12.9141 13.4896 12 13.4896ZM12 11.0866C11.6027 11.0866 11.2793 11.4131 11.2793 11.8142C11.2793 12.2153 11.6027 12.5419 12 12.5419C12.3973 12.5419 12.7207 12.2153 12.7207 11.8142C12.7207 11.4131 12.3973 11.0866 12 11.0866Z" fill="#020202"/>
<path d="M12 16.5729C11.0695 16.5729 10.1695 16.296 9.39958 15.7719L9.15466 15.605L9.19802 15.3104C9.39255 13.9829 10.5422 12.9832 11.8722 12.9832H12.1265C13.459 12.9832 14.6086 13.9841 14.8019 15.3128L14.8453 15.6074L14.6004 15.7742C13.8304 16.2972 12.9316 16.5741 12.0023 16.5741L12 16.5729ZM10.1941 15.1543C10.7449 15.4642 11.3636 15.6263 12 15.6263C12.6363 15.6263 13.2539 15.4643 13.8047 15.1554C13.5703 14.4384 12.8953 13.9285 12.1254 13.9285H11.8711C11.1035 13.9285 10.4285 14.4384 10.1941 15.1543Z" fill="#020202"/>
<path d="M12 16.5729C11.0695 16.5729 10.1695 16.296 9.39958 15.7719L9.15466 15.605L9.19802 15.3104C9.39255 13.9829 10.5422 12.9832 11.8722 12.9832H12.1265C13.459 12.9832 14.6086 13.9841 14.8019 15.3128L14.8453 15.6074L14.6004 15.7742C13.8304 16.2972 12.9316 16.5741 12.0023 16.5741L12 16.5729ZM10.1941 15.1543C10.7449 15.4642 11.3636 15.6263 12 15.6263C12.6363 15.6263 13.2539 15.4643 13.8047 15.1554C13.5703 14.4384 12.8953 13.9285 12.1254 13.9285H11.8711C11.1035 13.9285 10.4285 14.4384 10.1941 15.1543Z" fill="#020202"/>
<path d="M16.6875 18.4412H7.06873C6.80974 18.4412 6.59998 18.2294 6.59998 17.9679C6.59998 17.7064 6.80974 17.4946 7.06873 17.4946H16.6875C16.9465 17.4946 17.1562 17.7064 17.1562 17.9679C17.1562 18.2294 16.9465 18.4412 16.6875 18.4412Z" fill="#020202"/>
<path d="M15.2812 20.3342H8.71637C8.45739 20.3342 8.24762 20.1224 8.24762 19.861C8.24762 19.5995 8.45739 19.3877 8.71637 19.3877H15.2812C15.5402 19.3877 15.75 19.5995 15.75 19.861C15.75 20.1224 15.5402 20.3342 15.2812 20.3342Z" fill="#020202"/>
<path d="M14.8594 6.13623H12.9375V7.08276H14.8594C15.0926 7.08276 15.2812 7.27325 15.2812 7.5087C15.2812 7.74415 15.0926 7.93346 14.8594 7.93346H9.14062C8.90742 7.93346 8.71875 7.74297 8.71875 7.5087C8.71875 7.27443 8.90742 7.08276 9.14062 7.08276H11.0625V6.13623H9.14062C8.38945 6.13623 7.78125 6.75029 7.78125 7.5087C7.78125 8.26711 8.38945 8.87999 9.14062 8.87999H14.8594C15.6105 8.87999 16.2188 8.26593 16.2188 7.5087C16.2188 6.75148 15.6105 6.13623 14.8594 6.13623Z" fill="#020202"/>
<path d="M12.9375 1.77271H11.0625C10.5445 1.77271 10.125 2.19628 10.125 2.71924V8.86459H13.875V2.71924C13.875 2.19628 13.4555 1.77271 12.9375 1.77271ZM12.9375 7.91806H11.0625V2.71924H12.9375V7.91806Z" fill="#020202"/>
<path d="M18.5625 4.24316H12.9375V5.1897H18.5625V21.2807H5.4375V5.1897H11.0625V4.24316H5.4375C4.91953 4.24316 4.5 4.66674 4.5 5.1897V21.2807C4.5 21.8037 4.91953 22.2273 5.4375 22.2273H18.5625C19.0805 22.2273 19.5 21.8037 19.5 21.2807V5.1897C19.5 4.66674 19.0805 4.24316 18.5625 4.24316Z" fill="#020202"/>
</g>
<defs>
<clipPath id="clip0_170_5669">
<rect width="15" height="20.4545" fill="white" transform="translate(4.5 1.77271)"/>
</clipPath>
</defs>
</svg>
